<mxfile host="app.diagrams.net" modified="2021-08-25T02:51:11.482Z" agent="5.0 (Macintosh; Intel Mac OS X 10_15_7) AppleWebKit/537.36 (KHTML, like Gecko) Chrome/86.0.4240.193 Safari/537.36" etag="ALHPOWWu4oCYmyGIXv1L" version="14.9.8" type="github">
  <diagram id="WgoiMvCuxCSTF3Fv2BPh" name="Page-1">
    <mxGraphModel dx="946" dy="536" grid="1" gridSize="10" guides="1" tooltips="1" connect="1" arrows="1" fold="1" page="1" pageScale="1" pageWidth="827" pageHeight="1169" math="0" shadow="0">
      <root>
        <mxCell id="0" />
        <mxCell id="1" parent="0" />
        <mxCell id="WV-7KS4eb8zYheSkmvpU-1" style="rounded=0;orthogonalLoop=1;jettySize=auto;html=1;exitX=0;exitY=1;exitDx=0;exitDy=0;entryX=0.7;entryY=0.05;entryDx=0;entryDy=0;entryPerimeter=0;fillColor=#dae8fc;strokeColor=#6c8ebf;" edge="1" parent="1" source="WV-7KS4eb8zYheSkmvpU-3" target="WV-7KS4eb8zYheSkmvpU-6">
          <mxGeometry relative="1" as="geometry" />
        </mxCell>
        <mxCell id="WV-7KS4eb8zYheSkmvpU-2" style="edgeStyle=none;rounded=0;orthogonalLoop=1;jettySize=auto;html=1;exitX=1;exitY=1;exitDx=0;exitDy=0;fillColor=#dae8fc;strokeColor=#6c8ebf;" edge="1" parent="1" source="WV-7KS4eb8zYheSkmvpU-3" target="WV-7KS4eb8zYheSkmvpU-9">
          <mxGeometry relative="1" as="geometry" />
        </mxCell>
        <mxCell id="WV-7KS4eb8zYheSkmvpU-3" value="3" style="ellipse;whiteSpace=wrap;html=1;aspect=fixed;fillColor=#dae8fc;strokeColor=#6c8ebf;" vertex="1" parent="1">
          <mxGeometry x="220" y="110" width="40" height="40" as="geometry" />
        </mxCell>
        <mxCell id="WV-7KS4eb8zYheSkmvpU-4" style="edgeStyle=none;rounded=0;orthogonalLoop=1;jettySize=auto;html=1;exitX=0;exitY=1;exitDx=0;exitDy=0;entryX=0.5;entryY=0;entryDx=0;entryDy=0;fillColor=#dae8fc;strokeColor=#6c8ebf;" edge="1" parent="1" source="WV-7KS4eb8zYheSkmvpU-6" target="WV-7KS4eb8zYheSkmvpU-10">
          <mxGeometry relative="1" as="geometry" />
        </mxCell>
        <mxCell id="WV-7KS4eb8zYheSkmvpU-5" style="edgeStyle=none;rounded=0;orthogonalLoop=1;jettySize=auto;html=1;exitX=1;exitY=1;exitDx=0;exitDy=0;entryX=0.5;entryY=0;entryDx=0;entryDy=0;fillColor=#dae8fc;strokeColor=#6c8ebf;" edge="1" parent="1" source="WV-7KS4eb8zYheSkmvpU-6" target="WV-7KS4eb8zYheSkmvpU-11">
          <mxGeometry relative="1" as="geometry" />
        </mxCell>
        <mxCell id="WV-7KS4eb8zYheSkmvpU-6" value="5" style="ellipse;whiteSpace=wrap;html=1;aspect=fixed;fillColor=#dae8fc;strokeColor=#6c8ebf;" vertex="1" parent="1">
          <mxGeometry x="160" y="190" width="40" height="40" as="geometry" />
        </mxCell>
        <mxCell id="WV-7KS4eb8zYheSkmvpU-7" style="edgeStyle=none;rounded=0;orthogonalLoop=1;jettySize=auto;html=1;exitX=0;exitY=1;exitDx=0;exitDy=0;entryX=0.5;entryY=0;entryDx=0;entryDy=0;fillColor=#dae8fc;strokeColor=#6c8ebf;" edge="1" parent="1" source="WV-7KS4eb8zYheSkmvpU-9" target="WV-7KS4eb8zYheSkmvpU-12">
          <mxGeometry relative="1" as="geometry" />
        </mxCell>
        <mxCell id="WV-7KS4eb8zYheSkmvpU-8" style="rounded=0;orthogonalLoop=1;jettySize=auto;html=1;exitX=1;exitY=1;exitDx=0;exitDy=0;fillColor=#dae8fc;strokeColor=#6c8ebf;" edge="1" parent="1" source="WV-7KS4eb8zYheSkmvpU-9" target="WV-7KS4eb8zYheSkmvpU-13">
          <mxGeometry relative="1" as="geometry" />
        </mxCell>
        <mxCell id="WV-7KS4eb8zYheSkmvpU-9" value="7" style="ellipse;whiteSpace=wrap;html=1;aspect=fixed;fillColor=#dae8fc;strokeColor=#6c8ebf;" vertex="1" parent="1">
          <mxGeometry x="270" y="190" width="40" height="40" as="geometry" />
        </mxCell>
        <mxCell id="WV-7KS4eb8zYheSkmvpU-10" value="2" style="ellipse;whiteSpace=wrap;html=1;aspect=fixed;fillColor=#dae8fc;strokeColor=#6c8ebf;" vertex="1" parent="1">
          <mxGeometry x="120" y="270" width="40" height="40" as="geometry" />
        </mxCell>
        <mxCell id="WV-7KS4eb8zYheSkmvpU-11" value="4" style="ellipse;whiteSpace=wrap;html=1;aspect=fixed;fillColor=#dae8fc;strokeColor=#6c8ebf;" vertex="1" parent="1">
          <mxGeometry x="190" y="270" width="40" height="40" as="geometry" />
        </mxCell>
        <mxCell id="WV-7KS4eb8zYheSkmvpU-12" value="9" style="ellipse;whiteSpace=wrap;html=1;aspect=fixed;fillColor=#dae8fc;strokeColor=#6c8ebf;" vertex="1" parent="1">
          <mxGeometry x="240" y="270" width="40" height="40" as="geometry" />
        </mxCell>
        <mxCell id="WV-7KS4eb8zYheSkmvpU-13" value="6" style="ellipse;whiteSpace=wrap;html=1;aspect=fixed;fillColor=#dae8fc;strokeColor=#6c8ebf;" vertex="1" parent="1">
          <mxGeometry x="310" y="270" width="40" height="40" as="geometry" />
        </mxCell>
        <mxCell id="WV-7KS4eb8zYheSkmvpU-21" style="rounded=0;orthogonalLoop=1;jettySize=auto;html=1;exitX=0;exitY=1;exitDx=0;exitDy=0;entryX=0.7;entryY=0.05;entryDx=0;entryDy=0;entryPerimeter=0;fillColor=#dae8fc;strokeColor=#6c8ebf;" edge="1" parent="1" source="WV-7KS4eb8zYheSkmvpU-23" target="WV-7KS4eb8zYheSkmvpU-26">
          <mxGeometry relative="1" as="geometry" />
        </mxCell>
        <mxCell id="WV-7KS4eb8zYheSkmvpU-22" style="edgeStyle=none;rounded=0;orthogonalLoop=1;jettySize=auto;html=1;exitX=1;exitY=1;exitDx=0;exitDy=0;fillColor=#dae8fc;strokeColor=#6c8ebf;" edge="1" parent="1" source="WV-7KS4eb8zYheSkmvpU-23" target="WV-7KS4eb8zYheSkmvpU-29">
          <mxGeometry relative="1" as="geometry" />
        </mxCell>
        <mxCell id="WV-7KS4eb8zYheSkmvpU-23" value="9" style="ellipse;whiteSpace=wrap;html=1;aspect=fixed;fillColor=#dae8fc;strokeColor=#6c8ebf;" vertex="1" parent="1">
          <mxGeometry x="514" y="110" width="40" height="40" as="geometry" />
        </mxCell>
        <mxCell id="WV-7KS4eb8zYheSkmvpU-24" style="edgeStyle=none;rounded=0;orthogonalLoop=1;jettySize=auto;html=1;exitX=0;exitY=1;exitDx=0;exitDy=0;entryX=0.5;entryY=0;entryDx=0;entryDy=0;fillColor=#dae8fc;strokeColor=#6c8ebf;" edge="1" parent="1" source="WV-7KS4eb8zYheSkmvpU-26" target="WV-7KS4eb8zYheSkmvpU-30">
          <mxGeometry relative="1" as="geometry" />
        </mxCell>
        <mxCell id="WV-7KS4eb8zYheSkmvpU-25" style="edgeStyle=none;rounded=0;orthogonalLoop=1;jettySize=auto;html=1;exitX=1;exitY=1;exitDx=0;exitDy=0;entryX=0.5;entryY=0;entryDx=0;entryDy=0;fillColor=#dae8fc;strokeColor=#6c8ebf;" edge="1" parent="1" source="WV-7KS4eb8zYheSkmvpU-26" target="WV-7KS4eb8zYheSkmvpU-31">
          <mxGeometry relative="1" as="geometry" />
        </mxCell>
        <mxCell id="WV-7KS4eb8zYheSkmvpU-26" value="5" style="ellipse;whiteSpace=wrap;html=1;aspect=fixed;fillColor=#dae8fc;strokeColor=#6c8ebf;" vertex="1" parent="1">
          <mxGeometry x="454" y="190" width="40" height="40" as="geometry" />
        </mxCell>
        <mxCell id="WV-7KS4eb8zYheSkmvpU-27" style="edgeStyle=none;rounded=0;orthogonalLoop=1;jettySize=auto;html=1;exitX=0;exitY=1;exitDx=0;exitDy=0;entryX=0.5;entryY=0;entryDx=0;entryDy=0;fillColor=#dae8fc;strokeColor=#6c8ebf;" edge="1" parent="1" source="WV-7KS4eb8zYheSkmvpU-29" target="WV-7KS4eb8zYheSkmvpU-32">
          <mxGeometry relative="1" as="geometry" />
        </mxCell>
        <mxCell id="WV-7KS4eb8zYheSkmvpU-28" style="rounded=0;orthogonalLoop=1;jettySize=auto;html=1;exitX=1;exitY=1;exitDx=0;exitDy=0;fillColor=#dae8fc;strokeColor=#6c8ebf;" edge="1" parent="1" source="WV-7KS4eb8zYheSkmvpU-29" target="WV-7KS4eb8zYheSkmvpU-33">
          <mxGeometry relative="1" as="geometry" />
        </mxCell>
        <mxCell id="WV-7KS4eb8zYheSkmvpU-29" value="7" style="ellipse;whiteSpace=wrap;html=1;aspect=fixed;fillColor=#dae8fc;strokeColor=#6c8ebf;" vertex="1" parent="1">
          <mxGeometry x="564" y="190" width="40" height="40" as="geometry" />
        </mxCell>
        <mxCell id="WV-7KS4eb8zYheSkmvpU-30" value="2" style="ellipse;whiteSpace=wrap;html=1;aspect=fixed;fillColor=#dae8fc;strokeColor=#6c8ebf;" vertex="1" parent="1">
          <mxGeometry x="414" y="270" width="40" height="40" as="geometry" />
        </mxCell>
        <mxCell id="WV-7KS4eb8zYheSkmvpU-31" value="4" style="ellipse;whiteSpace=wrap;html=1;aspect=fixed;fillColor=#dae8fc;strokeColor=#6c8ebf;" vertex="1" parent="1">
          <mxGeometry x="484" y="270" width="40" height="40" as="geometry" />
        </mxCell>
        <mxCell id="WV-7KS4eb8zYheSkmvpU-32" value="3" style="ellipse;whiteSpace=wrap;html=1;aspect=fixed;fillColor=#dae8fc;strokeColor=#6c8ebf;" vertex="1" parent="1">
          <mxGeometry x="534" y="270" width="40" height="40" as="geometry" />
        </mxCell>
        <mxCell id="WV-7KS4eb8zYheSkmvpU-33" value="6" style="ellipse;whiteSpace=wrap;html=1;aspect=fixed;fillColor=#dae8fc;strokeColor=#6c8ebf;" vertex="1" parent="1">
          <mxGeometry x="604" y="270" width="40" height="40" as="geometry" />
        </mxCell>
      </root>
    </mxGraphModel>
  </diagram>
</mxfile>
